# xmcd
#
# Track frame offsets:
#	150
#	11622
#	20885
#	32460
#	41875
#	54287
#	70012
#	78287
#	86422
#	94252
#	103155
#	109785
#
# Disc length: 1574 seconds
#
# Revision: 0
# Processed by: cddbd v1.5.1PL0 Copyright (c) Steve Scherf et al.
# Submitted via: dBpowerAMP V4.0
#
DISCID=9006240c
DTITLE=varios - Country Forever
DYEAR=1900
DGENRE=Country
TTITLE0=Jesse James
TTITLE1=Old Age Pension Check
TTITLE2=Bright Mornin'stars
TTITLE3=Therell be no
TTITLE4=I saw the light
TTITLE5=Tom dooley
TTITLE6=Keep moving
TTITLE7=Groundhog blues
TTITLE8=Sales tax on the women
TTITLE9=Gotta travel on
TTITLE10=N.R.A. Blues
TTITLE11=Walkin'in jerusalem
EXTD=
EXTT0=
EXTT1=
EXTT2=
EXTT3=
EXTT4=
EXTT5=
EXTT6=
EXTT7=
EXTT8=
EXTT9=
EXTT10=
EXTT11=
PLAYORDER=
